<svg width="2176" height="2176" viewBox="0 0 2176 2176" fill="none" xmlns="http://www.w3.org/2000/svg">
<path d="M1087.65 0.320801C486.978 0.320801 0.0899658 487.197 0.0899658 1087.86C0.0899658 1688.52 486.978 2175.39 1087.65 2175.39C1688.33 2175.39 2175.22 1688.52 2175.22 1087.86C2175.22 487.274 1688.25 0.320801 1087.65 0.320801ZM1756.53 1408.62C1636.55 1656.16 1382.88 1826.84 1089.36 1826.92C679.489 1826.92 347.104 1493.61 348.265 1083.75C348.807 890.553 423.273 714.689 544.879 583.101C550.452 577.063 560.205 584.03 556.18 591.228C506.485 679.392 477.38 785.669 477.38 900.073C477.38 1205.2 683.746 1452.67 938.26 1452.67C1098.57 1452.67 1239.76 1354.44 1322.27 1205.51C1324.05 1202.34 1327.93 1201.02 1331.25 1202.57L1753.12 1399.33C1756.68 1400.8 1758.23 1405.06 1756.53 1408.62ZM1753.12 772.355L1323.75 972.601C1320.34 974.227 1316.39 972.756 1314.61 969.428C1269.79 882.889 1176.67 825.378 1070.86 832.886C945.691 841.71 844.675 943.188 836.238 1068.35C828.342 1185.85 900.563 1287.56 1003.67 1324.48C1005.91 1325.26 1005.06 1326.96 1002.35 1327.04C999.953 1327.12 997.476 1327.12 994.999 1327.12C768.429 1327.12 584.666 1106.9 584.666 835.208C584.666 829.403 584.743 823.675 584.898 817.947C592.329 560.731 802.488 355.376 1059.56 345.314C1069.39 344.927 1079.22 344.772 1089.13 344.772C1382.73 344.772 1636.39 515.449 1756.37 763.067C1758.23 766.473 1756.68 770.73 1753.12 772.355Z" fill="white"/>
</svg>
